<svg width="200" height="200" viewBox="0 0 200 200" fill="none" xmlns="http://www.w3.org/2000/svg">
<path d="M199.997 99.9901C199.997 155.211 155.231 199.98 99.9997 199.98C44.7689 199.98 0.00213623 155.211 0.00213623 99.9901C0.00213623 44.7689 44.77 0 99.9997 0C155.229 0 199.997 44.7647 199.997 99.9901Z" fill="white"/>
<path d="M99.9998 0C44.7886 0 -0.0575081 44.8323 0.0127778 99.9869C0.026622 111.022 1.78643 121.636 5.08934 131.565H35.0077V47.4512L99.9998 112.436L164.989 47.4512V131.567H194.913C198.221 121.639 199.972 111.024 199.992 99.9885C200.086 44.7764 155.217 0.0133103 99.9998 0.0133103V0Z" fill="#F26822"/>
<path d="M85.0533 127.375L56.6903 99.0137V151.943H35.0055L14.5433 151.947C32.0951 180.739 63.8153 200 99.9997 200C136.184 200 167.906 180.735 185.461 151.942H143.303V99.0137L114.938 127.375L99.9965 142.315L85.0544 127.375H85.0533Z" fill="#4D4D4D"/>
</svg>
