<svg width="81" height="82" viewBox="0 0 81 82" fill="none" xmlns="http://www.w3.org/2000/svg">
<path d="M40.4977 41C45.8681 41 51.0184 38.8402 54.8158 34.9957C58.6132 31.1512 60.7466 25.9369 60.7466 20.5C60.7466 15.0631 58.6132 9.84881 54.8158 6.00431C51.0184 2.15982 45.8681 0 40.4977 0C35.1274 0 29.977 2.15982 26.1796 6.00431C22.3822 9.84881 20.2489 15.0631 20.2489 20.5C20.2489 25.9369 22.3822 31.1512 26.1796 34.9957C29.977 38.8402 35.1274 41 40.4977 41ZM53.997 20.5C53.997 24.1246 52.5747 27.6008 50.0431 30.1638C47.5115 32.7268 44.0779 34.1667 40.4977 34.1667C36.9175 34.1667 33.4839 32.7268 30.9523 30.1638C28.4207 27.6008 26.9985 24.1246 26.9985 20.5C26.9985 16.8754 28.4207 13.3992 30.9523 10.8362C33.4839 8.27321 36.9175 6.83333 40.4977 6.83333C44.0779 6.83333 47.5115 8.27321 50.0431 10.8362C52.5747 13.3992 53.997 16.8754 53.997 20.5ZM80.9954 75.1667C80.9954 82 74.2458 82 74.2458 82H6.74962C6.74962 82 0 82 0 75.1667C0 68.3333 6.74962 47.8333 40.4977 47.8333C74.2458 47.8333 80.9954 68.3333 80.9954 75.1667ZM74.2458 75.1393C74.2391 73.4583 73.2064 68.4017 68.6301 63.7687C64.2294 59.3133 55.9476 54.6667 40.4977 54.6667C25.0411 54.6667 16.7661 59.3133 12.3653 63.7687C7.78906 68.4017 6.76312 73.4583 6.74962 75.1393H74.2458Z" fill="#FFB800"/>
</svg>
