<svg width="100" height="90" viewBox="0 0 100 90" fill="none" xmlns="http://www.w3.org/2000/svg">
<path d="M37.4988 2.81245C37.4988 2.06654 37.8281 1.35118 38.4142 0.823748C39.0003 0.296311 39.7952 0 40.6241 0L59.3759 0C60.2048 0 60.9997 0.296311 61.5858 0.823748C62.1719 1.35118 62.5012 2.06654 62.5012 2.81245C62.5012 3.55836 62.1719 4.27372 61.5858 4.80115C60.9997 5.32859 60.2048 5.6249 59.3759 5.6249H56.2506V11.6435C64.7627 12.7493 72.724 16.0876 79.1399 21.2415C85.5559 26.3954 90.142 33.1364 92.3253 40.6222C94.5086 48.1081 94.1924 56.007 91.4161 63.332C88.6398 70.6571 83.5265 77.0835 76.715 81.8086L80.4716 85.1948C81.0584 85.7221 81.3885 86.4377 81.389 87.184C81.3896 87.9303 81.0607 88.6463 80.4747 89.1744C79.8887 89.7025 79.0936 89.9995 78.2642 90C77.4349 90.0005 76.6393 89.7046 76.0524 89.1772L71.3895 84.981C64.8575 88.2804 57.4906 90.0085 50 89.9984C42.5094 90.0085 35.1425 88.2804 28.6105 84.981L23.9476 89.1772C23.657 89.4383 23.3121 89.6454 22.9326 89.7866C22.5531 89.9277 22.1464 90.0003 21.7358 90C21.3251 89.9997 20.9186 89.9267 20.5393 89.785C20.16 89.6434 19.8154 89.4359 19.5253 89.1744C19.2351 88.9129 19.005 88.6025 18.8481 88.261C18.6913 87.9195 18.6107 87.5535 18.6109 87.184C18.6115 86.4377 18.9415 85.7221 19.5284 85.1948L23.2912 81.8086C16.4799 77.0839 11.3665 70.6579 8.58991 63.3333C5.81328 56.0086 5.49649 48.1101 7.67911 40.6244C9.86173 33.1387 14.447 26.3977 20.8621 21.2434C27.2773 16.0891 35.2378 12.7502 43.7494 11.6435V5.6249H40.6241C39.7952 5.6249 39.0003 5.32859 38.4142 4.80115C37.8281 4.27372 37.4988 3.55836 37.4988 2.81245ZM53.1253 30.937C53.1253 30.1911 52.796 29.4757 52.2099 28.9483C51.6238 28.4208 50.8289 28.1245 50 28.1245C49.1711 28.1245 48.3762 28.4208 47.7901 28.9483C47.204 29.4757 46.8747 30.1911 46.8747 30.937V49.8479L37.9426 63.2351C37.5157 63.8751 37.3889 64.6415 37.5899 65.3657C37.7909 66.0899 38.3034 66.7125 39.0146 67.0966C39.7258 67.4808 40.5774 67.595 41.3821 67.4141C42.1868 67.2331 42.8787 66.772 43.3056 66.132L52.6815 52.0697C52.9721 51.6329 53.1255 51.1333 53.1253 50.6241V30.937ZM5.37082 30.3013C3.75354 29.0354 2.44298 27.4835 1.52064 25.7423C0.598297 24.0011 0.0838989 22.1077 0.00943305 20.1799C-0.0650328 18.2521 0.302027 16.3312 1.08778 14.5365C1.87354 12.7418 3.0612 11.1118 4.57689 9.74786C6.09258 8.38389 7.90389 7.31512 9.89819 6.60801C11.8925 5.90091 14.0271 5.57059 16.1693 5.63761C18.3115 5.70462 20.4155 6.16752 22.3505 6.99754C24.2854 7.82756 26.0098 9.00693 27.4166 10.4623C17.9154 14.8033 10.1947 21.7512 5.37082 30.3013ZM72.5834 10.4623C73.9901 9.00693 75.7146 7.82756 77.6495 6.99754C79.5845 6.16752 81.6884 5.70462 83.8307 5.63761C85.9729 5.57059 88.1075 5.90091 90.1018 6.60801C92.0961 7.31512 93.9074 8.38389 95.4231 9.74786C96.9388 11.1118 98.1264 12.7418 98.9122 14.5365C99.698 16.3312 100.065 18.2521 99.9906 20.1799C99.9161 22.1077 99.4017 24.0011 98.4794 25.7423C97.557 27.4835 96.2465 29.0354 94.6292 30.3013C89.8053 21.7512 82.0846 14.8033 72.5834 10.4623Z" fill="#FFC224"/>
</svg>
