<svg width="100" height="100" viewBox="0 0 100 100" fill="none" xmlns="http://www.w3.org/2000/svg">
<path fill-rule="evenodd" clip-rule="evenodd" d="M0.00638327 71.8733C0.00638327 72.702 0.38261 73.4968 1.0523 74.0828C1.72198 74.6688 2.63028 74.998 3.57736 74.998H87.8023L65.3266 94.659C64.6561 95.2457 64.2794 96.0415 64.2794 96.8713C64.2794 97.7011 64.6561 98.4969 65.3266 99.0836C65.9971 99.6704 66.9066 100 67.8549 100C68.8031 100 69.7126 99.6704 70.3831 99.0836L98.9509 74.0856C99.2834 73.7953 99.5473 73.4505 99.7273 73.0709C99.9073 72.6913 100 72.2843 100 71.8733C100 71.4623 99.9073 71.0553 99.7273 70.6757C99.5473 70.296 99.2834 69.9512 98.9509 69.6609L70.3831 44.6629C69.7126 44.0762 68.8031 43.7465 67.8549 43.7465C66.9066 43.7465 65.9971 44.0762 65.3266 44.6629C64.6561 45.2497 64.2794 46.0455 64.2794 46.8753C64.2794 47.705 64.6561 48.5008 65.3266 49.0876L87.8023 68.7485H3.57736C2.63028 68.7485 1.72198 69.0777 1.0523 69.6637C0.38261 70.2497 0.00638327 71.0445 0.00638327 71.8733ZM99.9936 28.1267C99.9936 28.9555 99.6174 29.7503 98.9477 30.3363C98.278 30.9223 97.3697 31.2515 96.4226 31.2515H12.1977L34.6734 50.9124C35.0054 51.203 35.2688 51.5479 35.4485 51.9275C35.6281 52.307 35.7206 52.7139 35.7206 53.1248C35.7206 53.5356 35.6281 53.9425 35.4485 54.3221C35.2688 54.7016 35.0054 55.0466 34.6734 55.3371C34.3414 55.6276 33.9472 55.8581 33.5134 56.0153C33.0796 56.1725 32.6147 56.2535 32.1451 56.2535C31.6756 56.2535 31.2107 56.1725 30.7769 56.0153C30.3431 55.8581 29.9489 55.6276 29.6169 55.3371L1.04911 30.3391C0.716555 30.0488 0.452711 29.704 0.272688 29.3243C0.0926653 28.9447 0 28.5377 0 28.1267C0 27.7157 0.0926653 27.3087 0.272688 26.9291C0.452711 26.5495 0.716555 26.2047 1.04911 25.9144L29.6169 0.916375C30.2874 0.32963 31.1969 0 32.1451 0C33.0934 0 34.0029 0.32963 34.6734 0.916375C35.3439 1.50312 35.7206 2.29892 35.7206 3.1287C35.7206 3.95848 35.3439 4.75428 34.6734 5.34103L12.1977 25.002H96.4226C97.3697 25.002 98.278 25.3312 98.9477 25.9172C99.6174 26.5032 99.9936 27.298 99.9936 28.1267Z" fill="#FFC224"/>
</svg>
